# xmcd
#
# Track frame offsets: 
#        182
#        9882
#        33002
#        50482
#        74745
#        87787
#        97852
#        124357
#        129132
#        139322
#        180047
#        185195
#        193697
#        203732
#        219382
#        236472
#
# Disc length: 3438 seconds
#
# Revision: 5
# Processed by: cddbd v1.5.2PL0 Copyright (c) Steve Scherf et al.
# Submitted via: ExactAudioCopyFreeDBPlugin 1.0
#
DISCID=d50d6c10
DTITLE=James Brown - Golden Hits
DYEAR=1993
DGENRE=Funk
TTITLE0=(Give It Up) Turn It Loose
TTITLE1=It's To Funky In Here
TTITLE2=Gonna Have A Funky Good Time
TTITLE3=Try Me
TTITLE4=Get On The Good Foot
TTITLE5=Get Up Off That Thing
TTITLE6=Georgia On My Mind
TTITLE7=Hot Pants
TTITLE8=I Got The Feeling
TTITLE9=It's A Man's Man's World
TTITLE10=Gold Sweat
TTITLE11=I Can't Stand It
TTITLE12=Papa's Got A Brand New Bag
TTITLE13=I Got You ( I Feel Good)
TTITLE14=Please, Please, Please
TTITLE15=Jam
EXTD=
EXTT0=
EXTT1=
EXTT2=
EXTT3=
EXTT4=
EXTT5=
EXTT6=
EXTT7=
EXTT8=
EXTT9=
EXTT10=
EXTT11=
EXTT12=
EXTT13=
EXTT14=
EXTT15=
PLAYORDER=
